<?xml version="1.0" encoding="UTF-8"?>
<svg id="Layer_1" data-name="Layer 1" xmlns="http://www.w3.org/2000/svg" viewBox="0 0 933.21 147.66">
  <defs>
    <style>
      .cls-1, .cls-2 {
        stroke-width: 0px;
      }

      .cls-2 {
        fill: #e80115;
      }
    </style>
  </defs>
  <g>
    <path class="cls-2" d="M256.52,21.48V4.15h-32.92v17.98h32.92v89.24h-31.27c6.7-10.61,10.6-23.16,10.6-36.61,0-37.91-30.84-68.75-68.75-68.75-16.44,0-31.54,5.81-43.39,15.47H58.81v105.84h51.15c-4.42-4.8-8.24-10.16-11.35-15.95h-23.74V37.44h34.54c-6.98,10.76-11.06,23.57-11.06,37.33,0,37.91,30.84,68.75,68.75,68.75,16.84,0,32.28-6.1,44.25-16.19h61.23V21.48h-16.06ZM108.18,74.76c0-32.49,26.43-58.93,58.93-58.93s58.93,26.43,58.93,58.93-26.43,58.93-58.93,58.93-58.93-26.43-58.93-58.93Z"/>
    <g>
      <path class="cls-1" d="M151.41,26.06c-11.02,3.62-20.41,10.82-26.79,20.24h46.65l-19.86-20.24Z"/>
      <path class="cls-1" d="M121.21,52.13c-3.51,7-5.5,14.89-5.5,23.25,0,3.46.35,6.83.99,10.1l33.08-33.36h-28.57Z"/>
      <path class="cls-1" d="M191.16,29.09c-7.06-3.59-15.05-5.63-23.51-5.63-3.19,0-6.3.3-9.33.85l32.85,33.9v-29.12Z"/>
      <path class="cls-1" d="M217.25,59.97c-3.42-11.02-10.42-20.45-19.62-26.97v46.84l19.62-19.87Z"/>
      <path class="cls-1" d="M184.05,124.66c10.85-3.61,20.12-10.7,26.46-19.95h-46.6l20.14,19.95Z"/>
      <path class="cls-1" d="M144.32,121.79c7.01,3.53,14.93,5.53,23.32,5.53,2.67,0,5.29-.2,7.85-.59l-31.17-33.2v28.26Z"/>
      <path class="cls-1" d="M118.4,91.89c3.59,10.72,10.58,19.88,19.69,26.2v-46.19l-19.69,19.99Z"/>
      <path class="cls-1" d="M213.9,99c3.63-7.09,5.68-15.11,5.68-23.62,0-2.86-.24-5.66-.68-8.39l-32.48,32.01h27.48Z"/>
    </g>
  </g>
  <g>
    <g>
      <path class="cls-1" d="M327.06,42.49c.92-.71,1.83-1.26,2.71-1.65.89-.39,1.68-.65,2.39-.8.78-.21,1.56-.28,2.34-.21,1.92.14,3.1.75,3.56,1.81.46,1.06.51,2.77.16,5.11-.21,1.21-.64,2.73-1.28,4.58-.64,1.84-1.38,4.1-2.23,6.75-.85,2.66-1.75,5.69-2.71,9.1-.96,3.4-1.86,7.23-2.71,11.49-.85,3.47-1.77,7.48-2.77,12.02-.85,3.97-1.86,8.76-3.03,14.36-1.17,5.6-2.43,12.02-3.78,19.26-.36,1.77-1.12,2.8-2.29,3.08-1.17.28-2.39.14-3.67-.42-.5-.29-.96-.6-1.38-.96-.36-.36-.74-.76-1.17-1.22-.43-.46-.78-1.08-1.06-1.86,1.63-5.96,3.07-11.38,4.31-16.28,1.24-4.89,2.36-9.15,3.35-12.77,1.06-4.19,2.06-7.94,2.98-11.28.35-1.49.69-2.96,1.01-4.41.32-1.45.66-2.89,1.01-4.31-.92,1.49-1.92,2.91-2.98,4.25-1.06,1.35-2.23,2.52-3.51,3.51s-2.64,1.75-4.1,2.29c-1.46.53-2.96.69-4.52.48-3.83-.5-6.54-1.91-8.14-4.25s-2.29-5.39-2.07-9.15c.07-1.49.28-3.12.64-4.89.36-1.77.74-3.47,1.17-5.11.43-1.63.83-3.1,1.22-4.42.39-1.31.69-2.25.9-2.82.85-2.69,1.47-5,1.86-6.92.39-1.92.09-3.51-.9-4.79.99-.64,1.93-1.08,2.82-1.33.89-.25,1.68-.44,2.39-.58.78-.07,1.56-.07,2.34,0,1.92.28,3.03.99,3.35,2.13.32,1.14.19,2.84-.37,5.11-.28,1.21-.75,2.75-1.38,4.63-.64,1.88-1.31,3.81-2.02,5.8-.71,1.99-1.35,3.81-1.92,5.48-.57,1.67-.89,2.86-.96,3.56-.64,3.19-.67,5.66-.11,7.39.57,1.74,1.81,2.61,3.72,2.61.92,0,1.95-.41,3.09-1.22,1.13-.81,2.29-1.9,3.46-3.25,1.17-1.35,2.32-2.89,3.46-4.63,1.13-1.74,2.18-3.49,3.14-5.27.96-1.77,1.81-3.51,2.55-5.21.74-1.7,1.29-3.23,1.65-4.57.5-2.62.81-4.68.96-6.17.14-1.49-.36-2.83-1.49-4.04Z"/>
      <path class="cls-1" d="M397.92,60.47c-.99,1.42-2.27,3.17-3.83,5.27-1.56,2.09-3.17,4.19-4.84,6.28-1.67,2.09-3.3,4.01-4.89,5.75-1.6,1.74-2.93,2.96-3.99,3.67-.71.43-1.53.78-2.45,1.06-.92.28-1.86.46-2.82.53-.96.07-1.86.02-2.71-.16-.85-.18-1.6-.48-2.23-.9-.64-.5-1.17-1.21-1.6-2.13-.36-.78-.69-1.81-1.01-3.08-.32-1.28-.44-2.87-.37-4.79-1.7,2.84-3.58,5.02-5.64,6.54-2.06,1.53-4.01,2.64-5.85,3.35-2.13.78-4.26,1.24-6.38,1.38-.99,0-2.06-.34-3.19-1.01-1.13-.67-2.09-1.74-2.87-3.19-.78-1.45-1.28-3.33-1.49-5.64-.21-2.3.07-5.05.85-8.24.99-4.33,2.57-8.26,4.73-11.81,2.16-3.55,4.52-6.58,7.08-9.1,2.55-2.52,5.07-4.42,7.55-5.69,2.48-1.28,4.54-1.84,6.17-1.7,1.91.36,3.47.92,4.68,1.7.99.71,1.65,1.76,1.97,3.14s-.27,3.21-1.75,5.48c.99-.21,1.83-.35,2.5-.43.67-.07,1.19-.11,1.54-.11.43,0,.71.04.85.11.07.14.11.44.11.9s-.11,1.29-.32,2.5c-.21,1.21-.53,2.84-.96,4.89-.43,2.06-.99,4.72-1.7,7.98-.14.64-.27,1.22-.37,1.75-.11.53-.21,1.06-.32,1.6-.11.53-.23,1.15-.37,1.86-.14.71-.32,1.6-.53,2.66-.07.64-.09,1.33-.05,2.08.04.74.16,1.44.37,2.07.21.64.55,1.15,1.01,1.54.46.39,1.12.59,1.97.59.71,0,1.63-.44,2.77-1.33,1.13-.89,2.34-2.02,3.62-3.4s2.61-2.91,3.99-4.57c1.38-1.67,2.68-3.28,3.88-4.84,1.21-1.56,2.29-2.94,3.25-4.15.96-1.21,1.65-2.09,2.07-2.66.57-.64,1.13-1.01,1.7-1.12.57-.11.99.05,1.28.48.28.43.34,1.06.16,1.92-.18.85-.69,1.84-1.54,2.98ZM366.74,65.15c.35-1.42.78-3.09,1.28-5,.5-1.92.92-3.76,1.28-5.53.35-1.77.62-3.25.8-4.42.18-1.17.12-1.72-.16-1.65-.36.07-.74.18-1.17.32-.36.14-.82.25-1.38.32-.57.07-1.14.18-1.7.32.57-1.13.9-2.08,1.01-2.82.11-.75.12-1.33.05-1.76-.07-.5-.21-.89-.42-1.17-.78-.64-2.15-.12-4.1,1.54-1.95,1.67-4.2,4.73-6.75,9.2-1.06,1.84-1.92,3.81-2.55,5.9-.64,2.09-1.08,4.06-1.33,5.9-.25,1.84-.3,3.46-.16,4.84.14,1.38.43,2.29.85,2.71.78.78,1.67,1.15,2.66,1.12.99-.03,2-.32,3.03-.85,1.03-.53,2.06-1.22,3.08-2.07,1.03-.85,1.95-1.74,2.77-2.66.81-.92,1.49-1.77,2.02-2.55.53-.78.83-1.35.9-1.7Z"/>
      <path class="cls-1" d="M446.21,63.23c-.99,2.55-2.13,5.04-3.4,7.45-1.28,2.41-2.7,4.58-4.26,6.49-1.56,1.91-3.23,3.44-5,4.57-1.77,1.13-3.69,1.7-5.75,1.7-3.33,0-5.85-1.12-7.55-3.35-1.7-2.23-2.87-4.98-3.51-8.24-.99,1.49-2.06,2.98-3.19,4.47-1.14,1.49-2.34,2.8-3.62,3.94-1.28,1.13-2.59,2.06-3.94,2.77-1.35.71-2.7,1.06-4.04,1.06-1.84,0-3.4-.39-4.68-1.17-1.28-.78-2.32-1.86-3.14-3.24-.82-1.38-1.4-2.98-1.76-4.79-.36-1.81-.53-3.74-.53-5.8v-1.28c0-2.62.21-5.32.64-8.08.43-2.77.9-5.32,1.44-7.66.53-2.34,1.08-4.38,1.65-6.12.57-1.74.99-2.89,1.28-3.46.5-.71,1.58-1.4,3.25-2.07,1.67-.67,3.31-.94,4.95-.8.78.07,1.19.39,1.22.96.04.57-.05,1.28-.27,2.13-.28,1.21-.78,3.01-1.49,5.43-.71,2.41-1.44,5.04-2.18,7.87-.75,2.84-1.4,5.64-1.97,8.4-.57,2.77-.85,5.07-.85,6.92,0,2.27.35,3.9,1.06,4.89.71.99,1.81,1.49,3.3,1.49,1.77,0,3.74-.99,5.9-2.98,2.16-1.98,4.27-5.35,6.33-10.11-.07-.43-.11-.85-.11-1.28v-1.38c0-3.19.12-6.24.37-9.15.25-2.91.74-5.46,1.49-7.66.74-2.2,1.77-3.94,3.08-5.21,1.31-1.28,3.03-1.92,5.16-1.92.85,0,1.56.25,2.13.75.57.5.85,1.21.85,2.13,0,2.27-.8,5.48-2.39,9.63-1.6,4.15-3.49,8.71-5.69,13.67-.21.28-.36.57-.42.85.21,1.35.48,2.77.8,4.25.32,1.49.76,2.86,1.33,4.1.57,1.24,1.24,2.27,2.02,3.09.78.82,1.7,1.22,2.77,1.22,1.56,0,3-.74,4.31-2.23,1.31-1.49,2.48-3.3,3.51-5.43,1.03-2.13,1.93-4.38,2.71-6.76.78-2.38,1.38-4.48,1.81-6.33-.21-.78-.39-1.54-.53-2.29-.14-.74-.21-1.61-.21-2.61,0-2.2.32-4.08.96-5.64.64-1.56,1.47-2.85,2.5-3.88,1.03-1.03,2.13-1.79,3.3-2.29,1.17-.5,2.25-.74,3.25-.74,1.77,0,2.66.78,2.66,2.34,0,1.14-.28,3.1-.85,5.9-.57,2.8-1.38,5.98-2.45,9.52,1.28.57,2.91.85,4.89.85,1.84,0,3.55-.23,5.11-.69,1.56-.46,2.98-1.05,4.25-1.76,1.28-.71,2.45-1.49,3.51-2.34,1.06-.85,2.09-1.67,3.08-2.45.78-.57,1.42-.6,1.92-.11.5.5.43,1.28-.21,2.34-.57.92-1.54,1.99-2.93,3.19-1.38,1.21-3.05,2.36-5,3.46-1.95,1.1-4.11,2.02-6.49,2.77-2.38.74-4.88,1.12-7.5,1.12-.43,0-.89-.03-1.38-.11-.5-.07-.99-.18-1.49-.32Z"/>
      <path class="cls-2" d="M515.79,60.47c-.99,1.42-2.27,3.17-3.83,5.27-1.56,2.09-3.17,4.19-4.84,6.28-1.67,2.09-3.3,4.01-4.89,5.75-1.6,1.74-2.93,2.96-3.99,3.67-.71.43-1.53.78-2.45,1.06-.92.28-1.86.46-2.82.53-.96.07-1.86.02-2.71-.16-.85-.18-1.6-.48-2.23-.9-.64-.5-1.17-1.21-1.6-2.13-.36-.78-.69-1.81-1.01-3.08-.32-1.28-.44-2.87-.37-4.79-1.7,2.84-3.58,5.02-5.64,6.54-2.06,1.53-4.01,2.64-5.85,3.35-2.13.78-4.26,1.24-6.38,1.38-.99,0-2.06-.34-3.19-1.01-1.13-.67-2.09-1.74-2.87-3.19-.78-1.45-1.28-3.33-1.49-5.64-.21-2.3.07-5.05.85-8.24.99-4.33,2.57-8.26,4.73-11.81,2.16-3.55,4.52-6.58,7.08-9.1,2.55-2.52,5.07-4.42,7.55-5.69,2.48-1.28,4.54-1.84,6.17-1.7,1.91.36,3.47.92,4.68,1.7.99.71,1.65,1.76,1.97,3.14s-.27,3.21-1.75,5.48c.99-.21,1.83-.35,2.5-.43.67-.07,1.19-.11,1.54-.11.43,0,.71.04.85.11.07.14.11.44.11.9s-.11,1.29-.32,2.5c-.21,1.21-.53,2.84-.96,4.89-.43,2.06-.99,4.72-1.7,7.98-.14.64-.27,1.22-.37,1.75-.11.53-.21,1.06-.32,1.6-.11.53-.23,1.15-.37,1.86-.14.71-.32,1.6-.53,2.66-.07.64-.09,1.33-.05,2.08.04.74.16,1.44.37,2.07.21.64.55,1.15,1.01,1.54.46.39,1.12.59,1.97.59.71,0,1.63-.44,2.77-1.33,1.13-.89,2.34-2.02,3.62-3.4s2.61-2.91,3.99-4.57c1.38-1.67,2.68-3.28,3.88-4.84,1.21-1.56,2.29-2.94,3.25-4.15.96-1.21,1.65-2.09,2.07-2.66.57-.64,1.13-1.01,1.7-1.12.57-.11.99.05,1.28.48.28.43.34,1.06.16,1.92-.18.85-.69,1.84-1.54,2.98ZM484.62,65.15c.35-1.42.78-3.09,1.28-5,.5-1.92.92-3.76,1.28-5.53.35-1.77.62-3.25.8-4.42.18-1.17.12-1.72-.16-1.65-.36.07-.74.18-1.17.32-.36.14-.82.25-1.38.32-.57.07-1.14.18-1.7.32.57-1.13.9-2.08,1.01-2.82.11-.75.12-1.33.05-1.76-.07-.5-.21-.89-.42-1.17-.78-.64-2.15-.12-4.1,1.54-1.95,1.67-4.2,4.73-6.75,9.2-1.06,1.84-1.92,3.81-2.55,5.9-.64,2.09-1.08,4.06-1.33,5.9-.25,1.84-.3,3.46-.16,4.84.14,1.38.43,2.29.85,2.71.78.78,1.67,1.15,2.66,1.12.99-.03,2-.32,3.03-.85,1.03-.53,2.06-1.22,3.08-2.07,1.03-.85,1.95-1.74,2.77-2.66.81-.92,1.49-1.77,2.02-2.55.53-.78.83-1.35.9-1.7Z"/>
      <path class="cls-2" d="M558.24,76.74c0-1.49.16-3.19.48-5.11s.73-3.88,1.22-5.9c.5-2.02.99-3.99,1.49-5.9.5-1.92.92-3.62,1.28-5.11.43-1.84.39-3.26-.11-4.26-.5-.99-1.35-1.49-2.55-1.49-.57,0-1.69.5-3.35,1.49-1.67.99-3.48,2.71-5.42,5.16-1.95,2.45-3.87,5.74-5.75,9.89-1.88,4.15-3.35,9.42-4.42,15.8-1.35.71-2.62,1.17-3.83,1.38-.64.14-1.21.25-1.7.32-1.42.07-2.34-.16-2.77-.69s-.36-1.83.21-3.88c.28-.99.8-2.59,1.54-4.79.75-2.2,1.47-4.59,2.18-7.18.71-2.59,1.33-5.18,1.86-7.77.53-2.59.8-4.84.8-6.76,0-1.35-.23-2.27-.69-2.77-.46-.5-1.12-.75-1.97-.75-.64,0-1.7.36-3.19,1.06-1.49.71-3.16,2.09-5,4.15-1.84,2.06-3.67,4.91-5.48,8.56-1.81,3.65-3.35,8.39-4.63,14.2v-.21c-.14.57-.28,1.14-.42,1.7-.14.5-.25,1.03-.32,1.6-.07.57-.18,1.1-.32,1.6l-5.32,2.34c-.36.14-.8.25-1.33.32-.53.07-1.03-.02-1.49-.27-.46-.25-.8-.76-1.01-1.54s-.14-1.95.21-3.51l6.7-27.77c.21-.92.39-1.81.53-2.66.14-.78.23-1.54.27-2.29.04-.74-.02-1.36-.16-1.86,1.21-.57,2.27-.99,3.19-1.28.92-.28,1.67-.5,2.23-.64.71-.21,1.31-.32,1.81-.32,2.27,0,3.01,1.95,2.23,5.85-.28,1.14-.71,2.8-1.28,5,1.35-1.7,2.78-3.31,4.31-4.84s3.07-2.89,4.63-4.1c1.56-1.21,3.14-2.16,4.73-2.87,1.6-.71,3.17-1.06,4.73-1.06,1.21,0,2.22.36,3.03,1.06.81.71,1.45,1.65,1.92,2.82.46,1.17.73,2.55.8,4.15.07,1.6,0,3.25-.21,4.95,1.13-1.49,2.39-3,3.78-4.52,1.38-1.52,2.84-2.89,4.36-4.1,1.52-1.21,3.1-2.2,4.73-2.98,1.63-.78,3.26-1.17,4.89-1.17,1.92,0,3.39.57,4.42,1.7,1.03,1.14,1.74,2.59,2.13,4.36.39,1.77.5,3.69.32,5.75-.18,2.06-.48,4.04-.9,5.96l-3.62,14.36c-.78,3.55-.04,5.32,2.23,5.32,1.77,0,3.72-.85,5.85-2.55,2.13-1.7,4.2-3.72,6.22-6.06,2.02-2.34,3.92-4.75,5.69-7.23,1.77-2.48,3.26-4.47,4.47-5.96.43-.5.87-.78,1.33-.85.46-.07.85.02,1.17.27.32.25.5.66.53,1.22.04.57-.16,1.28-.58,2.13-1.42,2.48-3.16,5.23-5.21,8.24-2.06,3.02-4.31,5.83-6.76,8.46-2.45,2.62-5.05,4.82-7.82,6.6-2.77,1.77-5.64,2.66-8.62,2.66-.99,0-1.97-.11-2.93-.32-.96-.21-1.84-.6-2.66-1.17-.82-.57-1.47-1.33-1.97-2.29-.5-.96-.75-2.18-.75-3.67Z"/>
      <path class="cls-2" d="M641.43,60.47c-.99,1.42-2.27,3.17-3.83,5.27-1.56,2.09-3.17,4.19-4.84,6.28-1.67,2.09-3.3,4.01-4.89,5.75-1.6,1.74-2.93,2.96-3.99,3.67-.71.43-1.53.78-2.45,1.06-.92.28-1.86.46-2.82.53-.96.07-1.86.02-2.71-.16-.85-.18-1.6-.48-2.23-.9-.64-.5-1.17-1.21-1.6-2.13-.36-.78-.69-1.81-1.01-3.08-.32-1.28-.44-2.87-.37-4.79-1.7,2.84-3.58,5.02-5.64,6.54-2.06,1.53-4.01,2.64-5.85,3.35-2.13.78-4.26,1.24-6.38,1.38-.99,0-2.06-.34-3.19-1.01-1.13-.67-2.09-1.74-2.87-3.19-.78-1.45-1.28-3.33-1.49-5.64-.21-2.3.07-5.05.85-8.24.99-4.33,2.57-8.26,4.73-11.81,2.16-3.55,4.52-6.58,7.08-9.1,2.55-2.52,5.07-4.42,7.55-5.69,2.48-1.28,4.54-1.84,6.17-1.7,1.91.36,3.47.92,4.68,1.7.99.71,1.65,1.76,1.97,3.14s-.27,3.21-1.75,5.48c.99-.21,1.83-.35,2.5-.43.67-.07,1.19-.11,1.54-.11.43,0,.71.04.85.11.07.14.11.44.11.9s-.11,1.29-.32,2.5c-.21,1.21-.53,2.84-.96,4.89-.43,2.06-.99,4.72-1.7,7.98-.14.64-.27,1.22-.37,1.75-.11.53-.21,1.06-.32,1.6-.11.53-.23,1.15-.37,1.86-.14.71-.32,1.6-.53,2.66-.07.64-.09,1.33-.05,2.08.04.74.16,1.44.37,2.07.21.64.55,1.15,1.01,1.54.46.39,1.12.59,1.97.59.71,0,1.63-.44,2.77-1.33,1.13-.89,2.34-2.02,3.62-3.4s2.61-2.91,3.99-4.57c1.38-1.67,2.68-3.28,3.88-4.84,1.21-1.56,2.29-2.94,3.25-4.15.96-1.21,1.65-2.09,2.07-2.66.57-.64,1.13-1.01,1.7-1.12.57-.11.99.05,1.28.48.28.43.34,1.06.16,1.92-.18.85-.69,1.84-1.54,2.98ZM610.26,65.15c.35-1.42.78-3.09,1.28-5,.5-1.92.92-3.76,1.28-5.53.35-1.77.62-3.25.8-4.42.18-1.17.12-1.72-.16-1.65-.36.07-.74.18-1.17.32-.36.14-.82.25-1.38.32-.57.07-1.14.18-1.7.32.57-1.13.9-2.08,1.01-2.82.11-.75.12-1.33.05-1.76-.07-.5-.21-.89-.42-1.17-.78-.64-2.15-.12-4.1,1.54-1.95,1.67-4.2,4.73-6.75,9.2-1.06,1.84-1.92,3.81-2.55,5.9-.64,2.09-1.08,4.06-1.33,5.9-.25,1.84-.3,3.46-.16,4.84.14,1.38.43,2.29.85,2.71.78.78,1.67,1.15,2.66,1.12.99-.03,2-.32,3.03-.85,1.03-.53,2.06-1.22,3.08-2.07,1.03-.85,1.95-1.74,2.77-2.66.81-.92,1.49-1.77,2.02-2.55.53-.78.83-1.35.9-1.7Z"/>
      <path class="cls-2" d="M665.9,84.3c-1.63,0-3.03-.3-4.2-.9-1.17-.6-2.11-1.4-2.82-2.39-.71-.99-1.17-2.14-1.38-3.46-.21-1.31-.14-2.71.21-4.2.21-.99.57-2.32,1.06-3.99.5-1.67,1.01-3.47,1.54-5.43.53-1.95,1.03-3.9,1.49-5.85.46-1.95.76-3.72.9-5.32.14-1.6.07-2.91-.21-3.94-.29-1.03-.89-1.54-1.81-1.54-1.14,0-2.31.37-3.51,1.12-1.21.74-2.43,1.75-3.67,3.03-1.24,1.28-2.48,2.75-3.72,4.42-1.24,1.67-2.46,3.39-3.67,5.16-.64,2.41-1.17,4.52-1.6,6.33s-.8,3.44-1.12,4.89c-.32,1.45-.62,2.73-.9,3.83-.28,1.1-.53,2.15-.74,3.14-.21.71-.85,1.4-1.92,2.08-1.06.67-2.2,1.22-3.4,1.65-1.21.43-2.25.64-3.14.64s-1.26-.32-1.12-.96c.07-.42.3-1.38.69-2.87.39-1.49.85-3.24,1.38-5.27.53-2.02,1.08-4.17,1.65-6.44.57-2.27,1.1-4.43,1.6-6.49.35-1.63.75-3.44,1.17-5.43.35-1.7.8-3.69,1.33-5.96.53-2.27,1.15-4.75,1.86-7.45.5-.43,1.01-.76,1.54-1.01.53-.25,1.08-.44,1.65-.58.57-.21,1.17-.35,1.81-.43.57,0,1.13.04,1.7.11.5.07,1.01.2,1.54.37.53.18,1.01.44,1.44.8-.21.5-.46,1.19-.75,2.07-.28.89-.57,1.83-.85,2.82-.28,1.14-.64,2.31-1.06,3.51.92-1.28,1.97-2.57,3.14-3.88,1.17-1.31,2.45-2.5,3.83-3.56,1.38-1.06,2.85-1.93,4.42-2.61,1.56-.67,3.16-1.01,4.79-1.01,1.35,0,2.55.39,3.62,1.17,1.06.78,1.9,1.86,2.5,3.25.6,1.38.96,3.03,1.06,4.95s-.16,4.01-.8,6.28l-1.17,4.68c-.36,1.49-.8,3.24-1.33,5.27-.53,2.02-1.19,4.24-1.97,6.65-.43,1.56-.58,2.91-.48,4.04.11,1.13.8,1.7,2.07,1.7s2.89-.78,4.84-2.34c1.95-1.56,3.92-3.44,5.9-5.64,1.98-2.2,3.86-4.45,5.64-6.75,1.77-2.3,3.12-4.17,4.04-5.59.64-.92,1.24-1.52,1.81-1.81.57-.28,1.01-.32,1.33-.11.32.21.48.69.48,1.44s-.28,1.69-.85,2.82c-.5.99-1.26,2.31-2.29,3.94-1.03,1.63-2.25,3.37-3.67,5.21-1.42,1.84-2.94,3.71-4.57,5.58-1.63,1.88-3.33,3.58-5.11,5.11-1.77,1.53-3.53,2.77-5.27,3.72-1.74.96-3.39,1.44-4.95,1.44Z"/>
      <path class="cls-2" d="M693.35,41.64c.35-.42,1.03-.78,2.02-1.06.99-.28,2.02-.51,3.08-.69,1.06-.18,2.04-.28,2.93-.32.89-.04,1.4-.02,1.54.05.07.07-.11.82-.53,2.23-.43,1.42-.96,3.08-1.6,5-.64,1.92-1.31,3.88-2.02,5.9-.71,2.02-1.24,3.67-1.6,4.95-.36,1.28-.78,2.71-1.28,4.31-.5,1.6-.94,3.16-1.33,4.68-.39,1.53-.66,2.96-.8,4.31-.14,1.35-.04,2.38.32,3.08.35.85.75,1.44,1.17,1.76s.89.48,1.38.48c1.42,0,3.21-.78,5.37-2.34,2.16-1.56,4.36-3.42,6.6-5.58,2.23-2.16,4.31-4.36,6.22-6.6s3.33-4.02,4.26-5.37c.57-.71,1.15-1.17,1.75-1.38.6-.21,1.1-.18,1.49.11.39.29.6.75.64,1.38.04.64-.2,1.38-.69,2.23-1.14,1.99-2.8,4.35-5,7.08-2.2,2.73-4.54,5.36-7.02,7.87-2.48,2.52-4.91,4.66-7.29,6.44-2.38,1.77-4.31,2.69-5.8,2.77-1.21.07-2.39-.12-3.56-.58-1.17-.46-2.23-1.1-3.19-1.92-.96-.81-1.75-1.77-2.39-2.87-.64-1.1-.99-2.25-1.06-3.46-.21-1.77-.21-4.2,0-7.29s.6-6.24,1.17-9.47c.57-3.23,1.29-6.29,2.18-9.2.89-2.91,1.9-5.07,3.03-6.49ZM708.03,18.98c-.21.78-.62,1.54-1.22,2.29-.6.74-1.28,1.35-2.02,1.81-.75.46-1.51.76-2.29.9-.78.14-1.42,0-1.92-.43-1.49-1.13-2.27-2.36-2.34-3.67-.07-1.31.25-2.55.96-3.72.71-1.17,1.6-2.16,2.66-2.98,1.06-.81,1.98-1.29,2.77-1.44.78-.14,1.44.02,1.97.48.53.46.94,1.06,1.22,1.81.28.75.44,1.58.48,2.5.03.92-.05,1.74-.27,2.45Z"/>
      <path class="cls-2" d="M746.11,84.3c-1.63,0-3.03-.3-4.2-.9-1.17-.6-2.11-1.4-2.82-2.39-.71-.99-1.17-2.14-1.38-3.46-.21-1.31-.14-2.71.21-4.2.21-.99.57-2.32,1.06-3.99.5-1.67,1.01-3.47,1.54-5.43.53-1.95,1.03-3.9,1.49-5.85.46-1.95.76-3.72.9-5.32.14-1.6.07-2.91-.21-3.94-.29-1.03-.89-1.54-1.81-1.54-1.14,0-2.31.37-3.51,1.12-1.21.74-2.43,1.75-3.67,3.03-1.24,1.28-2.48,2.75-3.72,4.42-1.24,1.67-2.46,3.39-3.67,5.16-.64,2.41-1.17,4.52-1.6,6.33s-.8,3.44-1.12,4.89c-.32,1.45-.62,2.73-.9,3.83-.28,1.1-.53,2.15-.74,3.14-.21.71-.85,1.4-1.92,2.08-1.06.67-2.2,1.22-3.4,1.65-1.21.43-2.25.64-3.14.64s-1.26-.32-1.12-.96c.07-.42.3-1.38.69-2.87.39-1.49.85-3.24,1.38-5.27.53-2.02,1.08-4.17,1.65-6.44.57-2.27,1.1-4.43,1.6-6.49.35-1.63.75-3.44,1.17-5.43.35-1.7.8-3.69,1.33-5.96.53-2.27,1.15-4.75,1.86-7.45.5-.43,1.01-.76,1.54-1.01.53-.25,1.08-.44,1.65-.58.57-.21,1.17-.35,1.81-.43.57,0,1.13.04,1.7.11.5.07,1.01.2,1.54.37.53.18,1.01.44,1.44.8-.21.5-.46,1.19-.75,2.07-.28.89-.57,1.83-.85,2.82-.28,1.14-.64,2.31-1.06,3.51.92-1.28,1.97-2.57,3.14-3.88,1.17-1.31,2.45-2.5,3.83-3.56,1.38-1.06,2.85-1.93,4.42-2.61,1.56-.67,3.16-1.01,4.79-1.01,1.35,0,2.55.39,3.62,1.17,1.06.78,1.9,1.86,2.5,3.25.6,1.38.96,3.03,1.06,4.95s-.16,4.01-.8,6.28l-1.17,4.68c-.36,1.49-.8,3.24-1.33,5.27-.53,2.02-1.19,4.24-1.97,6.65-.43,1.56-.58,2.91-.48,4.04.11,1.13.8,1.7,2.07,1.7s2.89-.78,4.84-2.34c1.95-1.56,3.92-3.44,5.9-5.64,1.98-2.2,3.86-4.45,5.64-6.75,1.77-2.3,3.12-4.17,4.04-5.59.64-.92,1.24-1.52,1.81-1.81.57-.28,1.01-.32,1.33-.11.32.21.48.69.48,1.44s-.28,1.69-.85,2.82c-.5.99-1.26,2.31-2.29,3.94-1.03,1.63-2.25,3.37-3.67,5.21-1.42,1.84-2.94,3.71-4.57,5.58-1.63,1.88-3.33,3.58-5.11,5.11-1.77,1.53-3.53,2.77-5.27,3.72-1.74.96-3.39,1.44-4.95,1.44Z"/>
      <path class="cls-2" d="M792.92,96.85c-.36,1.7-.8,3.83-1.33,6.38-.53,2.55-1.14,5.25-1.81,8.09-.67,2.84-1.45,5.65-2.34,8.46-.89,2.8-1.86,5.32-2.92,7.55-1.06,2.23-2.23,4.06-3.51,5.48-1.28,1.42-2.7,2.13-4.26,2.13-2.34,0-4.34-.69-6.01-2.07-1.67-1.38-3.07-3.12-4.2-5.21-1.14-2.09-1.97-4.35-2.5-6.76-.53-2.41-.8-4.65-.8-6.7,0-2.84.25-5.2.74-7.07.5-1.88,1.37-3.67,2.61-5.37,1.24-1.7,2.93-3.51,5.05-5.43,2.13-1.91,4.86-4.29,8.19-7.13,1.63-1.42,3.19-2.77,4.68-4.04,1.49-1.28,2.91-2.45,4.25-3.51.35-1.42.69-2.75,1.01-3.99.32-1.24.58-2.36.8-3.35-1.84,2.48-4.06,4.58-6.65,6.28-2.59,1.7-5.55,2.55-8.88,2.55-3.05,0-5.52-1.37-7.39-4.1-1.88-2.73-2.82-6.76-2.82-12.07,0-2.62.5-5.64,1.49-9.04.99-3.4,2.41-6.6,4.26-9.58,1.84-2.98,4.11-5.5,6.81-7.55,2.69-2.06,5.71-3.08,9.04-3.08,1.56,0,2.91.39,4.04,1.17,1.13.78,2.09,1.75,2.87,2.93.78,1.17,1.38,2.41,1.81,3.72.43,1.31.75,2.54.96,3.67.14-.43.25-.87.32-1.33.07-.46.18-.87.32-1.22.71-2.41,1.51-4.06,2.39-4.95.89-.89,2.22-1.33,3.99-1.33.99,0,1.83.18,2.5.53.67.36,1.01.67,1.01.96-.36.78-.64,1.38-.85,1.81s-.43.87-.64,1.33c-.21.46-.42,1.05-.64,1.75-.21.71-.5,1.74-.85,3.09-.14.5-.41,1.65-.8,3.46-.39,1.81-.89,3.95-1.49,6.44-.6,2.48-1.24,5.21-1.92,8.19-.67,2.98-1.33,5.89-1.97,8.72,1.98-1.13,4.04-2.52,6.17-4.15,2.13-1.63,4.15-3.3,6.06-5s3.62-3.31,5.11-4.84c1.49-1.52,2.59-2.78,3.3-3.78.57-.85,1.21-1.45,1.92-1.81.71-.35,1.33-.48,1.86-.37.53.11.85.43.96.96.11.53-.12,1.26-.69,2.18-1.63,2.62-3.62,5.16-5.96,7.61-2.34,2.45-4.73,4.72-7.18,6.81-2.45,2.09-4.82,3.94-7.13,5.53-2.31,1.6-4.27,2.89-5.9,3.88-.71,3.19-1.31,5.78-1.81,7.77-.5,1.99-.92,3.79-1.28,5.43ZM774.62,125.26c1.42,0,2.57-1.05,3.46-3.14.89-2.09,1.83-4.95,2.82-8.56.21-.85.51-2.07.9-3.67.39-1.6.85-3.42,1.38-5.48.53-2.06,1.08-4.27,1.65-6.65.57-2.38,1.17-4.77,1.81-7.18-.57.5-1.15,1.01-1.75,1.54-.6.53-1.22,1.15-1.86,1.86-1.56,1.49-3.07,2.93-4.52,4.31-1.46,1.38-2.75,2.84-3.88,4.36-1.13,1.52-2.04,3.17-2.71,4.95-.67,1.77-1.01,3.83-1.01,6.17s.09,4.26.27,5.75c.18,1.49.43,2.66.74,3.51.32.85.71,1.44,1.17,1.75.46.32.97.48,1.54.48ZM779.52,75.89c1.49,0,2.89-.39,4.2-1.17,1.31-.78,2.5-1.68,3.56-2.71,1.06-1.03,1.95-2.07,2.66-3.14.71-1.06,1.24-1.91,1.6-2.55.28-.64.62-1.49,1.01-2.55.39-1.06.69-2.09.9-3.08.21-.99.3-1.88.27-2.66-.04-.78-.3-1.21-.8-1.28-.43-.07-.76-.35-1.01-.85-.25-.5-.44-1.06-.58-1.7-.14-.64-.23-1.28-.27-1.92-.04-.64-.09-1.21-.16-1.7-.36-2.48-.96-4.29-1.81-5.43-.85-1.13-1.81-1.7-2.87-1.7-1.77,0-3.46.71-5.05,2.13-1.6,1.42-3.02,3.25-4.26,5.48-1.24,2.23-2.22,4.68-2.92,7.34-.71,2.66-1.06,5.2-1.06,7.61,0,2.98.43,5.37,1.28,7.18.85,1.81,2.62,2.71,5.32,2.71Z"/>
    </g>
    <g>
      <path class="cls-1" d="M333.36,135.78v-26.09h9.36c2.19,0,4.06.35,5.63,1.04s2.77,1.7,3.62,3c.84,1.3,1.27,2.89,1.27,4.75s-.42,3.38-1.27,4.7c-.85,1.32-2.05,2.32-3.62,3.02s-3.44,1.04-5.63,1.04h-8.31l.86-.89v9.43h-1.9ZM335.26,126.46l-.86-.93h8.31c2.81,0,4.94-.62,6.39-1.85,1.45-1.23,2.18-2.96,2.18-5.2s-.73-4.01-2.18-5.24c-1.45-1.23-3.58-1.84-6.39-1.84h-8.31l.86-.93v15.99Z"/>
      <path class="cls-1" d="M374.21,135.78h-1.9v-26.09h1.9v26.09ZM391.88,123.36h-17.89v-1.68h17.89v1.68ZM391.65,109.69h1.9v26.09h-1.9v-26.09Z"/>
      <path class="cls-1" d="M426.39,135.96c-1.94,0-3.73-.33-5.39-.99-1.65-.66-3.09-1.59-4.32-2.79-1.23-1.21-2.18-2.61-2.85-4.21-.67-1.6-1.01-3.35-1.01-5.24s.34-3.63,1.01-5.24c.67-1.6,1.62-3.01,2.85-4.21,1.23-1.21,2.67-2.14,4.32-2.79s3.45-.99,5.39-.99,3.73.33,5.39.99c1.65.66,3.09,1.58,4.31,2.78,1.22,1.19,2.17,2.59,2.85,4.19s1.03,3.36,1.03,5.27-.34,3.67-1.03,5.27-1.63,3-2.85,4.19c-1.22,1.19-2.65,2.12-4.31,2.78-1.65.66-3.45.99-5.39.99ZM426.39,134.21c1.66,0,3.21-.29,4.62-.86,1.42-.57,2.65-1.38,3.69-2.42,1.04-1.04,1.86-2.26,2.44-3.65s.88-2.91.88-4.55-.29-3.19-.88-4.57c-.58-1.38-1.4-2.59-2.44-3.63-1.04-1.04-2.27-1.85-3.69-2.42-1.42-.57-2.96-.86-4.62-.86s-3.21.29-4.62.86c-1.42.57-2.65,1.38-3.71,2.42-1.06,1.04-1.88,2.25-2.46,3.63-.58,1.38-.88,2.9-.88,4.57s.29,3.16.88,4.55c.58,1.39,1.4,2.61,2.46,3.65,1.06,1.04,2.29,1.85,3.71,2.42,1.42.57,2.96.86,4.62.86Z"/>
      <path class="cls-1" d="M463.85,135.78v-24.38h-9.39v-1.71h20.69v1.71h-9.39v24.38h-1.9Z"/>
      <path class="cls-1" d="M503.21,135.96c-1.94,0-3.73-.33-5.39-.99-1.65-.66-3.09-1.59-4.32-2.79-1.23-1.21-2.18-2.61-2.85-4.21-.67-1.6-1.01-3.35-1.01-5.24s.34-3.63,1.01-5.24c.67-1.6,1.62-3.01,2.85-4.21,1.23-1.21,2.67-2.14,4.32-2.79s3.45-.99,5.39-.99,3.73.33,5.39.99c1.65.66,3.09,1.58,4.31,2.78,1.22,1.19,2.17,2.59,2.85,4.19s1.03,3.36,1.03,5.27-.34,3.67-1.03,5.27-1.63,3-2.85,4.19c-1.22,1.19-2.65,2.12-4.31,2.78-1.65.66-3.45.99-5.39.99ZM503.21,134.21c1.66,0,3.21-.29,4.62-.86,1.42-.57,2.65-1.38,3.69-2.42,1.04-1.04,1.86-2.26,2.44-3.65s.88-2.91.88-4.55-.29-3.19-.88-4.57c-.58-1.38-1.4-2.59-2.44-3.63-1.04-1.04-2.27-1.85-3.69-2.42-1.42-.57-2.96-.86-4.62-.86s-3.21.29-4.62.86c-1.42.57-2.65,1.38-3.71,2.42-1.06,1.04-1.88,2.25-2.46,3.63-.58,1.38-.88,2.9-.88,4.57s.29,3.16.88,4.55c.58,1.39,1.4,2.61,2.46,3.65,1.06,1.04,2.29,1.85,3.71,2.42,1.42.57,2.96.86,4.62.86Z"/>
      <path class="cls-1" d="M547.2,135.96c-1.96,0-3.78-.33-5.44-.99-1.67-.66-3.11-1.58-4.34-2.78-1.23-1.19-2.18-2.59-2.85-4.19s-1.01-3.36-1.01-5.27.34-3.67,1.01-5.27,1.63-3,2.87-4.19c1.24-1.19,2.69-2.12,4.34-2.78s3.47-.99,5.46-.99,3.64.3,5.26.89,2.99,1.49,4.14,2.68l-1.19,1.27c-1.14-1.12-2.39-1.91-3.75-2.39-1.35-.47-2.83-.71-4.42-.71-1.69,0-3.25.29-4.7.86-1.44.57-2.7,1.38-3.76,2.42s-1.9,2.26-2.48,3.65c-.58,1.39-.88,2.91-.88,4.55s.29,3.16.88,4.55c.58,1.39,1.41,2.61,2.48,3.65s2.32,1.85,3.76,2.42c1.44.57,3.01.86,4.7.86,1.54,0,3-.24,4.38-.71s2.64-1.25,3.78-2.35l1.08,1.45c-1.17,1.12-2.57,1.96-4.19,2.52-1.63.56-3.34.84-5.12.84ZM554.69,132.42v-9.58h1.83v9.77l-1.83-.19Z"/>
      <path class="cls-1" d="M577.54,135.78v-26.09h9.36c2.19,0,4.06.35,5.63,1.04s2.77,1.7,3.62,3c.84,1.3,1.27,2.89,1.27,4.75s-.42,3.37-1.27,4.68c-.85,1.3-2.05,2.31-3.62,3.02-1.57.71-3.44,1.06-5.63,1.06h-8.31l.86-.89v9.43h-1.9ZM579.44,126.46l-.86-.89h8.31c2.81,0,4.94-.62,6.39-1.86,1.45-1.24,2.18-2.98,2.18-5.22s-.73-4.01-2.18-5.24c-1.45-1.23-3.58-1.84-6.39-1.84h-8.31l.86-.93v15.99ZM595.65,135.78l-6.78-9.47h2.16l6.78,9.47h-2.16Z"/>
      <path class="cls-1" d="M612.69,135.78l12-26.09h1.9l12,26.09h-2.05l-11.33-24.9h.82l-11.29,24.9h-2.05ZM617.09,128.43l.63-1.6h15.62l.63,1.6h-16.88Z"/>
      <path class="cls-1" d="M656,135.78v-26.09h9.36c2.19,0,4.06.35,5.63,1.04s2.77,1.7,3.62,3c.84,1.3,1.27,2.89,1.27,4.75s-.42,3.38-1.27,4.7c-.85,1.32-2.05,2.32-3.62,3.02s-3.44,1.04-5.63,1.04h-8.31l.86-.89v9.43h-1.9ZM657.9,126.46l-.86-.93h8.31c2.81,0,4.94-.62,6.39-1.85,1.45-1.23,2.18-2.96,2.18-5.2s-.73-4.01-2.18-5.24c-1.45-1.23-3.58-1.84-6.39-1.84h-8.31l.86-.93v15.99Z"/>
      <path class="cls-1" d="M696.85,135.78h-1.9v-26.09h1.9v26.09ZM714.52,123.36h-17.89v-1.68h17.89v1.68ZM714.3,109.69h1.9v26.09h-1.9v-26.09Z"/>
      <path class="cls-1" d="M744.12,135.78v-9.47l.45,1.23-10.96-17.85h2.09l9.95,16.21h-1.04l9.95-16.21h1.98l-10.96,17.85.45-1.23v9.47h-1.9Z"/>
    </g>
  </g>
</svg>